PathFileType	4	(X/Y/Z)	 s08c0403.trc
DataRate	CameraRate	NumFrames	NumMarkers	Units	OrigDataRate	OrigDataStartFrame	OrigNumFrames
200	200	5	50	mm	200	1251	2000
Frame#	Time	racr			lacr			c7			jug			rlel			rdr			llel			ldr			s2			lic			ric			lasi			rasi			rpsi			lpsi			rgt			lgt			rth1			rth2			rth3			rth4			rlfc			rmfc			rsh1			rsh2			rsh3			rsh4			rlmal			rmmal			rcal			rtoe			rmt5			lth1			lth2			lth4			lth3			llfc			lmfc			llmal			lmmal			lcal			lmt5			lsh1			lsh2			lsh3			lsh4			ltoe			SBIKE			LBIKE			RBIKE			
		X1	Y1	Z1	X2	Y2	Z2	X3	Y3	Z3	X4	Y4	Z4	X5	Y5	Z5	X6	Y6	Z6	X7	Y7	Z7	X8	Y8	Z8	X9	Y9	Z9	X10	Y10	Z10	X11	Y11	Z11	X12	Y12	Z12	X13	Y13	Z13	X14	Y14	Z14	X15	Y15	Z15	X16	Y16	Z16	X17	Y17	Z17	X18	Y18	Z18	X19	Y19	Z19	X20	Y20	Z20	X21	Y21	Z21	X22	Y22	Z22	X23	Y23	Z23	X24	Y24	Z24	X25	Y25	Z25	X26	Y26	Z26	X27	Y27	Z27	X28	Y28	Z28	X29	Y29	Z29	X30	Y30	Z30	X31	Y31	Z31	X32	Y32	Z32	X33	Y33	Z33	X34	Y34	Z34	X35	Y35	Z35	X36	Y36	Z36	X37	Y37	Z37	X38	Y38	Z38	X39	Y39	Z39	X40	Y40	Z40	X41	Y41	Z41	X42	Y42	Z42	X43	Y43	Z43	X44	Y44	Z44	X45	Y45	Z45	X46	Y46	Z46	X47	Y47	Z47	X48	Y48	Z48	X49	Y49	Z49	X50	Y50	Z50	
1251	6.2550	844.656007	1409.372885	-116.917285	867.772641	1314.604044	-451.545161	849.474469	1432.086653	-292.550620	805.051740	1281.859749	-268.086640	715.205521	1203.377193	31.861166	764.385452	929.131769	-47.580471	667.758346	1139.341532	-592.474129	756.788330	933.957333	-448.714521	281.870783	1280.001423	-176.307990	415.340546	1204.833688	-349.988155	478.442500	1266.242394	-55.514375	372.730496	1208.972883	-498.616832	478.211864	1192.180650	-98.453102	332.788920	1313.877076	-138.897728	312.284562	1313.049587	-234.079507	392.704499	1153.675434	0.975405	317.526715	1137.475934	-366.557196	459.713316	990.004198	-21.484350	502.067988	915.004660	-43.249015	502.171505	828.919039	-53.968971	532.134803	926.311154	-60.062168	513.659936	715.808712	-78.925038	473.385532	723.134679	-184.111473	395.625799	662.112623	-37.595348	337.503663	596.545530	-54.425045	255.590220	566.987762	-52.635609	352.326871	576.398783	-88.700515	146.084649	508.301156	-51.776353	170.096621	508.603070	-142.075547	89.422717	563.113157	-99.366697	195.938977	282.397483	-104.710210	134.082933	353.361616	-36.710661	372.822115	1013.637024	-382.610625	429.681712	947.773890	-388.453955	462.562953	963.370257	-383.692082	445.532245	860.128300	-388.555815	484.633172	737.469148	-375.593610	487.120824	707.224200	-272.502080	314.306928	349.963500	-390.504929	354.999300	369.432931	-315.865822	242.430259	332.967953	-352.692859	438.013645	249.071831	-419.020900	433.630165	618.413917	-402.649504	419.437252	534.591049	-389.813487	366.337364	464.507932	-393.001661	440.824611	528.079937	-356.680506	524.286860	268.861257	-352.197125	-197.617846	923.214547	-224.436171	-5.859611	83.425765	-426.605897	-8.791338	80.588856	-28.468282	
1252	6.2600	844.625868	1409.683769	-113.852748	867.687078	1317.089998	-449.532114	850.084081	1432.932060	-289.268932	804.181425	1283.063318	-265.448284	714.787962	1203.502733	35.288732	764.454963	929.340960	-47.473629	668.501974	1141.958774	-590.964189	756.990560	934.130542	-449.482488	280.584032	1278.200620	-179.115036	417.554227	1202.401361	-351.090577	476.292024	1266.455200	-56.792167	377.288530	1205.157472	-488.222265	478.453473	1190.011653	-107.315891	330.924868	1312.595786	-141.409670	310.878028	1310.589212	-236.050834	391.106173	1153.845180	-0.420314	318.136154	1132.333786	-367.261182	459.597909	990.402681	-21.625636	504.033304	916.714989	-43.144415	505.602448	830.574949	-55.425956	534.060417	928.889831	-60.247549	520.312127	719.276769	-81.511378	479.860416	726.616027	-186.765998	401.609224	667.542167	-40.326854	342.437225	603.101619	-56.257882	260.106885	574.723233	-54.184648	356.630276	582.439430	-90.958829	150.009828	518.297680	-52.538453	173.809053	518.378342	-142.895596	92.941966	572.942933	-99.668723	200.772858	292.847165	-104.838356	138.653883	363.557850	-36.853449	371.181535	1007.534236	-382.838565	426.138390	939.849330	-387.776809	459.262131	954.533840	-383.788549	439.624213	851.917246	-386.870022	476.572108	730.165120	-373.148407	477.616996	700.621934	-270.874655	310.790096	341.243463	-390.765192	352.727812	361.621962	-317.180027	239.277654	325.037148	-353.019906	434.000259	238.952964	-418.780398	426.514555	610.992525	-400.984105	413.389718	527.089131	-388.837134	361.295203	456.231551	-392.546560	434.567918	520.734347	-355.558556	521.379315	259.876317	-354.674957	-197.695756	923.303469	-224.211806	-5.859495	83.428645	-426.586963	-8.811736	80.592914	-28.462559	
1253	6.2650	844.737779	1409.815862	-110.666500	867.485894	1319.773219	-447.659778	850.723370	1433.777236	-285.886096	803.285109	1284.283457	-262.831858	714.196630	1203.332167	37.438869	764.617101	929.660843	-47.436311	669.281672	1144.611197	-589.348687	757.239456	934.289477	-450.151845	279.406385	1276.391856	-182.201540	419.782475	1200.056970	-352.226829	473.872969	1266.866277	-57.978778	382.494987	1200.983223	-475.951578	478.729346	1187.796407	-116.565131	329.379402	1311.827057	-144.120051	309.427995	1308.843426	-237.296184	388.334763	1153.899963	-1.164657	318.981945	1127.534121	-368.138648	459.324483	990.863080	-21.653739	505.728104	918.532512	-43.441220	509.389564	832.589180	-56.968781	535.749128	931.592704	-60.274213	527.058848	723.242184	-84.194635	483.056186	730.630225	-188.337007	407.731029	673.441748	-42.354988	347.641907	609.612222	-58.066457	264.922581	582.589420	-55.748929	362.577569	588.969777	-91.536548	154.306099	528.107894	-53.411412	177.919852	527.867282	-143.993688	96.678593	582.736480	-100.005586	206.234773	303.055347	-105.172422	143.779261	373.584177	-36.960643	369.464945	1001.368692	-383.244320	422.445621	932.197360	-387.315330	456.278628	945.743645	-382.368460	433.455316	844.134780	-385.734131	467.871898	723.199452	-371.596023	467.405738	694.251765	-269.564131	306.792931	332.726973	-391.003894	349.803580	354.006635	-318.375018	235.605559	317.483761	-353.335887	429.429589	228.951412	-418.574744	418.414045	604.167575	-400.240825	406.643898	519.834563	-388.105384	355.611035	448.307512	-392.283517	427.785238	513.777766	-354.769521	516.957097	248.896229	-354.401263	-197.670933	923.308033	-224.167774	-5.847892	83.454178	-426.608158	-8.776209	80.549241	-28.459409	
1254	6.2700	844.980714	1409.641254	-107.384703	867.114629	1322.628565	-445.629421	851.383309	1434.510761	-282.253504	802.307611	1285.422961	-260.120493	713.508308	1203.098057	39.784575	764.984369	929.994214	-47.385615	670.103207	1147.227238	-587.648344	757.553185	934.388352	-450.751289	278.307225	1274.444021	-185.513743	422.018901	1197.811993	-353.394773	471.318567	1267.774429	-58.232497	388.375062	1196.438682	-461.722109	479.087830	1185.667126	-126.445883	327.766049	1311.543616	-147.495375	309.079168	1306.321060	-240.730615	385.482548	1154.371743	-2.677902	320.073295	1123.070832	-369.267156	459.087200	991.502197	-22.020049	507.575990	920.659503	-44.288714	513.707013	835.150723	-58.586556	537.514252	934.970113	-60.793454	533.987541	727.603395	-86.596529	495.770966	733.659180	-191.470844	414.104557	679.322544	-44.604296	353.136317	616.373328	-59.800670	270.087224	590.242635	-57.282544	367.653384	595.248284	-93.288155	158.853709	537.740965	-54.400455	182.608902	536.909484	-144.603155	100.567117	591.741509	-100.757388	212.474896	313.278621	-105.303189	149.498062	383.392046	-37.136784	367.673471	995.537919	-383.811815	418.538488	924.776287	-387.017025	452.829442	937.375709	-382.006978	426.925758	836.171942	-384.240285	459.072884	716.242875	-369.919635	456.715251	687.989447	-268.689678	302.094140	324.792811	-391.250631	346.185719	346.574295	-319.410537	231.516190	310.374260	-353.598091	424.233322	219.350751	-418.476120	409.860841	597.370635	-399.533399	399.335072	512.959186	-387.770063	349.353329	440.619166	-392.180140	420.449650	508.197689	-356.545687	511.942949	238.217094	-354.194693	-197.729006	923.264119	-224.347863	-5.809072	83.509885	-426.647171	-8.727290	80.596132	-28.505875	
1255	6.2750	845.416957	1409.359832	-103.984374	866.643129	1325.618109	-443.422170	851.967682	1434.957911	-278.492695	801.542749	1286.234305	-257.061345	712.767904	1202.739826	42.208975	765.382751	930.341871	-47.404678	671.096842	1149.958102	-586.465108	757.882056	934.408253	-451.117341	277.500481	1272.880807	-189.495534	424.257117	1195.677906	-354.592269	468.517112	1268.440433	-59.115866	394.953953	1191.512391	-445.451194	479.512400	1183.644600	-136.391547	326.110479	1309.922575	-151.149710	308.851353	1303.897422	-244.510438	382.042817	1154.954834	-3.897122	321.440271	1119.138630	-370.539809	459.060893	992.821286	-22.440438	509.934340	923.593087	-45.188869	518.553302	838.394110	-60.098356	539.321968	938.776380	-61.575336	540.756033	732.094926	-88.807563	502.490789	738.562865	-192.833130	420.685901	685.113426	-46.597376	359.134655	622.654505	-61.148840	275.477143	597.862629	-58.731371	373.087046	601.671174	-94.930171	163.753418	546.921994	-55.395009	187.398733	546.058744	-145.730217	104.552314	600.546578	-101.465287	219.468275	323.418316	-105.450616	155.884588	392.846531	-37.358835	365.693280	990.132166	-384.629537	414.561105	917.926450	-386.981454	449.097646	929.557753	-381.813627	420.310866	829.209961	-383.645965	449.453792	709.664206	-368.912202	445.422953	681.974535	-268.227451	296.908959	317.260056	-391.562073	341.833347	339.312284	-320.246329	226.944711	303.705770	-353.802150	418.554221	210.076106	-418.320932	400.781639	590.825189	-399.412110	391.557725	506.400656	-387.750625	342.692505	433.213145	-392.287951	412.746386	501.756871	-356.530222	505.432628	225.494933	-351.084887	-197.679503	923.156590	-224.662599	-5.803087	83.508390	-426.654975	-8.723064	80.759315	-28.381854	
